<?xml version="1.0" encoding="utf-8"?>
<!-- Generator: Adobe Illustrator 21.0.0, SVG Export Plug-In . SVG Version: 6.00 Build 0)  -->
<svg version="1.1" id="Layer_1" xmlns="http://www.w3.org/2000/svg" xmlns:xlink="http://www.w3.org/1999/xlink" x="0px" y="0px"
	 viewBox="0 0 1760.913 2809.581" enable-background="new 0 0 1760.913 2809.581" xml:space="preserve">
<path d="M333.802,2804.212c0.301-0.001,0.607-0.002,0.908-0.002c-0.317-0.051-0.64-0.097-0.956-0.149L333.802,2804.212z
	 M91.567,1715.541c0-122.562,122.089-237.913,274.701-237.913c156.426,0,331.93,122.561,331.93,293.787c0,3.604,7.63,3.604,7.63,0
	v-295.589c0-5.408-5.722-5.408-7.63,0c-3.815,19.825-22.892,43.257-78.214,43.257c-82.029,0-154.518-48.665-255.624-48.665
	C167.873,1470.418,0,1645.249,0,1839.905c0,212.679,144.981,302.798,328.115,365.881c299.5,99.131,431.128,171.225,431.128,344.253
	c0,117.154-137.351,254.134-362.453,254.134c-21.267,0-41.944,0.014-62.08,0.037c20.171,3.274,41.339,5.371,63.988,5.371
	c307.13,0,467.373-236.111,467.373-392.918c0-219.889-158.335-304.6-410.143-387.51
	C211.748,1948.047,91.567,1845.311,91.567,1715.541"/>
<path d="M1123.302,891.196H667.625L896.401,270.5L1123.302,891.196z M1712.625,1360c3.75,0,51.829-7.501,48.079-7.501h-232.356
	c-7.501,0-13.127-3.75-15.002-5.626L993.911,4.219c-1.875-5.625-7.5-5.625-9.376,0L519.483,1273.74
	c-26.253,73.133-30.003,78.759-46.88,78.759H330.085c-3.75,0-3.75,7.501,0,7.501h354.416c3.75,0,3.75-7.501,0-7.501h-172.52
	c-11.251,0-9.376-11.251,15.002-78.759L665.75,898.697h461.303l163.143,448.176c0,1.876-1.875,5.626-9.376,5.626h-180.02
	c-3.751,0-3.751,7.501,0,7.501H1712.625z"/>
</svg>
