<?xml version="1.0" encoding="utf-8"?>
<!-- Generator: Adobe Illustrator 21.0.0, SVG Export Plug-In . SVG Version: 6.00 Build 0)  -->
<svg version="1.1" id="Layer_1" xmlns="http://www.w3.org/2000/svg" xmlns:xlink="http://www.w3.org/1999/xlink" x="0px" y="0px"
	 viewBox="0 0 217.991 302.932" enable-background="new 0 0 217.991 302.932" xml:space="preserve">
<path fill="#2E2B2A" d="M90.36,101.162H38.634l25.969-70.457L90.36,101.162z M157.256,154.378c0.426,0,5.883-0.851,5.458-0.851
	h-26.376c-0.851,0-1.49-0.426-1.703-0.639L75.672,0.478c-0.213-0.638-0.851-0.638-1.064,0l-52.79,144.108
	c-2.98,8.302-3.406,8.941-5.322,8.941H0.319c-0.426,0-0.426,0.851,0,0.851H40.55c0.426,0,0.426-0.851,0-0.851H20.967
	c-1.278,0-1.065-1.278,1.702-8.941l15.752-42.572h52.364l18.519,50.874c0,0.213-0.212,0.639-1.064,0.639H87.805
	c-0.425,0-0.425,0.851,0,0.851H157.256z"/>
<path fill="#2E2B2A" d="M158.597,302.333c0.034,0,0.068,0,0.102,0c-0.035-0.006-0.072-0.011-0.107-0.017L158.597,302.333z
	 M131.568,180.855c0-13.676,13.623-26.547,30.652-26.547c17.455,0,37.038,13.676,37.038,32.782c0,0.402,0.852,0.402,0.852,0v-32.983
	c0-0.604-0.639-0.604-0.852,0c-0.425,2.212-2.554,4.826-8.727,4.826c-9.153,0-17.242-5.43-28.524-5.43
	c-21.925,0-40.656,19.508-40.656,41.229c0,23.732,16.177,33.787,36.612,40.826c33.419,11.062,48.107,19.106,48.107,38.414
	c0,13.072-15.326,28.357-40.444,28.357c-2.373,0-4.68,0.001-6.927,0.004c2.251,0.365,4.613,0.599,7.14,0.599
	c34.271,0,52.151-26.346,52.151-43.843c0-24.536-17.667-33.989-45.765-43.24C144.978,206.799,131.568,195.335,131.568,180.855"/>
</svg>
