<svg xmlns="http://www.w3.org/2000/svg"><symbol id="icon-facebook" viewBox="0 0 12.9 24.8"><path d="M8.4 24.8V13.5h3.8l.6-4.4H8.4V6.3c0-1.3.4-2.1 2.2-2.1h2.3v-4C12.5.1 11.1 0 9.5 0 6.1 0 3.8 2.1 3.8 5.8V9H0v4.4h3.8v11.3h4.6z"/></symbol><symbol id="icon-instagram" viewBox="0 0 22.4 22.4"><path d="M11.2 0c-3 0-3.4 0-4.6.1-1.2.1-2 .2-2.7.5-.7.3-1.4.7-2 1.3-.6.6-1 1.2-1.3 2-.3.7-.5 1.5-.5 2.7C0 7.8 0 8.2 0 11.2s0 3.4.1 4.6c.1 1.2.2 2 .5 2.7.3.7.7 1.4 1.3 2 .6.6 1.2 1 2 1.3.7.3 1.5.5 2.7.5 1.2.1 1.6.1 4.6.1 3 0 3.4 0 4.6-.1 1.2-.1 2-.2 2.7-.5 1.5-.6 2.7-1.8 3.3-3.3.3-.7.5-1.5.5-2.7.1-1.2.1-1.6.1-4.6s0-3.4-.1-4.6c-.1-1.2-.2-2-.5-2.7-.3-.7-.7-1.4-1.3-2-.6-.6-1.2-1-2-1.3-.7-.3-1.5-.5-2.7-.5-1.2-.1-1.6-.1-4.6-.1zm0 2c3 0 3.3 0 4.5.1 1.1.1 1.7.2 2.1.4.5.2.9.5 1.3.8.4.4.7.8.8 1.3.2.4.3 1 .4 2.1.1 1.2.1 1.5.1 4.5s0 3.3-.1 4.5c-.1 1.1-.2 1.7-.4 2.1-.4 1-1.1 1.7-2.1 2.1-.4.2-1 .3-2.1.4-1.2.1-1.5.1-4.5.1s-3.3 0-4.5-.1c-1.1-.1-1.7-.2-2.1-.4-.5-.2-.9-.5-1.3-.8-.4-.4-.7-.8-.8-1.3-.2-.4-.3-1-.4-2.1-.1-1.2-.1-1.5-.1-4.5s0-3.3.1-4.5c0-1.1.2-1.7.4-2.1.2-.5.5-.9.8-1.3.4-.4.8-.7 1.3-.8.4-.2 1-.3 2.1-.4C7.9 2 8.2 2 11.2 2"/><path d="M11.2 14.9c-2.1 0-3.7-1.7-3.7-3.7 0-2.1 1.7-3.7 3.7-3.7 2.1 0 3.7 1.7 3.7 3.7 0 2.1-1.6 3.7-3.7 3.7m0-9.5C8 5.4 5.4 8 5.4 11.2c0 3.2 2.6 5.8 5.8 5.8 3.2 0 5.8-2.6 5.8-5.8 0-3.2-2.6-5.8-5.8-5.8"/><path d="M17.2 3.9c.7 0 1.3.6 1.3 1.3 0 .7-.6 1.3-1.3 1.3-.7 0-1.3-.6-1.3-1.3-.1-.7.5-1.3 1.3-1.3"/></symbol><symbol id="icon-nav" viewBox="0 0 16.75 13.503"><path d="M0 0h16.75v2H0z"/><path d="M0 5.751h16.75v2H0z"/><path d="M0 11.503h16.75v2H0z"/></symbol><symbol id="icon-pinterest" viewBox="0 0 24.3 24.3"><path d="M12.1 0C5.4 0 0 5.4 0 12.1c0 5.1 3.2 9.5 7.7 11.3-.1-1-.2-2.4 0-3.5.2-.9 1.4-6 1.4-6s-.4-.7-.4-1.8c0-1.7 1-2.9 2.2-2.9 1 0 1.5.8 1.5 1.7 0 1-.7 2.6-1 4-.3 1.2.6 2.2 1.8 2.2 2.2 0 3.8-2.3 3.8-5.6 0-2.9-2.1-4.9-5.1-4.9-3.5 0-5.5 2.6-5.5 5.3 0 1 .4 2.2.9 2.8.1.1.1.2.1.3-.1.4-.3 1.2-.3 1.4-.1.2-.2.3-.4.2-1.5-.7-2.5-2.9-2.5-4.7 0-3.8 2.8-7.3 8-7.3 4.2 0 7.5 3 7.5 7 0 4.2-2.6 7.5-6.3 7.5-1.2 0-2.4-.6-2.8-1.4 0 0-.6 2.3-.8 2.9-.3 1.1-1 2.4-1.5 3.2 1.1.4 2.3.5 3.6.5 6.7 0 12.1-5.4 12.1-12.1C24.3 5.4 18.8 0 12.1 0"/></symbol><symbol id="icon-twitter" viewBox="0 0 23.9 19.5"><path d="M7.5 19.5c9 0 14-7.5 14-14v-.6c1-.7 1.8-1.6 2.4-2.5-.9.4-1.8.7-2.8.8 1-.6 1.8-1.6 2.2-2.7-.9.6-2 1-3.1 1.2A4.6 4.6 0 0 0 16.6 0c-2.7 0-4.9 2.2-4.9 4.9 0 .4 0 .8.1 1.1C7.7 5.8 4.1 3.9 1.7.9c-.5.7-.7 1.6-.7 2.5 0 1.7.9 3.2 2.2 4.1-.8-.1-1.6-.3-2.2-.7v.1c0 2.4 1.7 4.4 3.9 4.8-.4.1-.8.2-1.3.2-.3 0-.6 0-.9-.1.6 2 2.4 3.4 4.6 3.4-1.7 1.3-3.8 2.1-6.1 2.1-.4 0-.8 0-1.2-.1 2.2 1.4 4.8 2.3 7.5 2.3"/></symbol><symbol id="icon-wordmark" viewBox="0 0 160 13.503"><path d="M6.209 3.228l1.978 5.258H4.268l1.941-5.258zM4.954.281L0 13.17h2.546l.981-2.66h5.485l1.049 2.66h2.547L7.414.281h-2.46z"/><path d="M21.911 6.176V2.305H23.2c1.738 0 2.012 1.021 2.057 1.91.03.467-.129.9-.46 1.253-.415.443-1.058.708-1.72.708h-1.166zm6.578 6.993L24.59 7.6l.22-.029c1.682-.211 3.05-1.801 3.05-3.541 0-2.243-1.613-3.75-4.014-3.75h-4.397v12.889h2.445V7.567l3.809 5.602h2.786z"/><path d="M34.56.281v2.182h2.642V13.17h2.515V2.463h2.502V.281z"/><path d="M58.159 5.648h-3.377V2.201h-2.007v3.447h-3.43v1.99h3.43v3.429h1.99V7.638h3.394z"/><path d="M72.776 12.121c.709-.737 1.081-1.675 1.045-2.645-.051-1.586-.835-2.761-2.266-3.399l-2.101-.963c-.738-.338-1.145-.89-1.145-1.556 0-.98.62-1.601 1.618-1.621l.088-.002c.876 0 1.38.449 1.915.925l.125.11 1.444-1.538C72.362.458 71.239.015 69.876 0h-.035c-1.162 0-2.271.448-3.04 1.23a3.344 3.344 0 0 0-.989 2.448c.036 1.624.671 2.651 2.059 3.329l1.976.927c.617.308 1.32.946 1.284 1.736-.068 1.217-.996 1.65-1.843 1.65h-.061c-.921-.037-1.576-.391-2.458-1.346l-1.367 1.695c1.242 1.267 2.497 1.834 4.056 1.834 1.244 0 2.484-.517 3.318-1.382"/><path d="M88.53.899l-.084-.037c-.702-.305-1.661-.723-2.724-.723h-.117c-3.758.119-6.606 2.965-6.623 6.621 0 3.51 2.967 6.588 6.35 6.588l.195-.003c1.144-.048 1.932-.177 3.003-.735v-2.193c-.702.379-1.701.78-2.789.78-1.241 0-2.363-.444-3.162-1.248-.786-.792-1.214-1.875-1.205-3.05.019-2.56 1.794-4.491 4.222-4.594 1.125-.043 2.366.541 2.934.873V.899z"/><path d="M95.329.28h2.445v12.889h-2.445z"/><path d="M105.898.281V13.17h7.081v-2.183h-4.548V7.606h4.548V5.477h-4.46V2.463h4.46V.281z"/><path d="M128.698.281v8.848L122.232.281h-2.457V13.17h2.497V4.048l6.466 9.122h2.37V.281z"/><path d="M146.768.899l-.084-.037c-.701-.305-1.661-.723-2.724-.723h-.117c-3.759.119-6.606 2.965-6.623 6.621 0 3.51 2.967 6.588 6.35 6.588l.195-.003c1.144-.048 1.932-.177 3.003-.735v-2.193c-.701.379-1.701.78-2.789.78-1.24 0-2.363-.444-3.162-1.248-.786-.792-1.214-1.875-1.205-3.05.019-2.56 1.795-4.491 4.222-4.594 1.134-.043 2.366.541 2.934.873V.899z"/><path d="M152.919.281V13.17H160v-2.183h-4.549V7.606H160V5.477h-4.461V2.463H160V.281z"/></symbol></svg>