<svg xmlns="http://www.w3.org/2000/svg"><symbol id="icon-facebook" viewBox="0 0 12.9 24.8"><path d="M8.4 24.8V13.5h3.8l.6-4.4H8.4V6.3c0-1.3.4-2.1 2.2-2.1h2.3v-4C12.5.1 11.1 0 9.5 0 6.1 0 3.8 2.1 3.8 5.8V9H0v4.4h3.8v11.3h4.6z"/></symbol><symbol id="icon-instagram" viewBox="0 0 22.4 22.4"><path d="M11.2 0c-3 0-3.4 0-4.6.1-1.2.1-2 .2-2.7.5-.7.3-1.4.7-2 1.3-.6.6-1 1.2-1.3 2-.3.7-.5 1.5-.5 2.7C0 7.8 0 8.2 0 11.2s0 3.4.1 4.6c.1 1.2.2 2 .5 2.7.3.7.7 1.4 1.3 2 .6.6 1.2 1 2 1.3.7.3 1.5.5 2.7.5 1.2.1 1.6.1 4.6.1 3 0 3.4 0 4.6-.1 1.2-.1 2-.2 2.7-.5 1.5-.6 2.7-1.8 3.3-3.3.3-.7.5-1.5.5-2.7.1-1.2.1-1.6.1-4.6s0-3.4-.1-4.6c-.1-1.2-.2-2-.5-2.7-.3-.7-.7-1.4-1.3-2-.6-.6-1.2-1-2-1.3-.7-.3-1.5-.5-2.7-.5-1.2-.1-1.6-.1-4.6-.1zm0 2c3 0 3.3 0 4.5.1 1.1.1 1.7.2 2.1.4.5.2.9.5 1.3.8.4.4.7.8.8 1.3.2.4.3 1 .4 2.1.1 1.2.1 1.5.1 4.5s0 3.3-.1 4.5c-.1 1.1-.2 1.7-.4 2.1-.4 1-1.1 1.7-2.1 2.1-.4.2-1 .3-2.1.4-1.2.1-1.5.1-4.5.1s-3.3 0-4.5-.1c-1.1-.1-1.7-.2-2.1-.4-.5-.2-.9-.5-1.3-.8-.4-.4-.7-.8-.8-1.3-.2-.4-.3-1-.4-2.1-.1-1.2-.1-1.5-.1-4.5s0-3.3.1-4.5c0-1.1.2-1.7.4-2.1.2-.5.5-.9.8-1.3.4-.4.8-.7 1.3-.8.4-.2 1-.3 2.1-.4C7.9 2 8.2 2 11.2 2"/><path d="M11.2 14.9c-2.1 0-3.7-1.7-3.7-3.7 0-2.1 1.7-3.7 3.7-3.7 2.1 0 3.7 1.7 3.7 3.7 0 2.1-1.6 3.7-3.7 3.7m0-9.5C8 5.4 5.4 8 5.4 11.2c0 3.2 2.6 5.8 5.8 5.8 3.2 0 5.8-2.6 5.8-5.8 0-3.2-2.6-5.8-5.8-5.8"/><path d="M17.2 3.9c.7 0 1.3.6 1.3 1.3 0 .7-.6 1.3-1.3 1.3-.7 0-1.3-.6-1.3-1.3-.1-.7.5-1.3 1.3-1.3"/></symbol><symbol id="icon-pinterest" viewBox="0 0 24.3 24.3"><path d="M12.1 0C5.4 0 0 5.4 0 12.1c0 5.1 3.2 9.5 7.7 11.3-.1-1-.2-2.4 0-3.5.2-.9 1.4-6 1.4-6s-.4-.7-.4-1.8c0-1.7 1-2.9 2.2-2.9 1 0 1.5.8 1.5 1.7 0 1-.7 2.6-1 4-.3 1.2.6 2.2 1.8 2.2 2.2 0 3.8-2.3 3.8-5.6 0-2.9-2.1-4.9-5.1-4.9-3.5 0-5.5 2.6-5.5 5.3 0 1 .4 2.2.9 2.8.1.1.1.2.1.3-.1.4-.3 1.2-.3 1.4-.1.2-.2.3-.4.2-1.5-.7-2.5-2.9-2.5-4.7 0-3.8 2.8-7.3 8-7.3 4.2 0 7.5 3 7.5 7 0 4.2-2.6 7.5-6.3 7.5-1.2 0-2.4-.6-2.8-1.4 0 0-.6 2.3-.8 2.9-.3 1.1-1 2.4-1.5 3.2 1.1.4 2.3.5 3.6.5 6.7 0 12.1-5.4 12.1-12.1C24.3 5.4 18.8 0 12.1 0"/></symbol><symbol id="icon-twitter" viewBox="0 0 23.9 19.5"><path d="M7.5 19.5c9 0 14-7.5 14-14v-.6c1-.7 1.8-1.6 2.4-2.5-.9.4-1.8.7-2.8.8 1-.6 1.8-1.6 2.2-2.7-.9.6-2 1-3.1 1.2A4.6 4.6 0 0 0 16.6 0c-2.7 0-4.9 2.2-4.9 4.9 0 .4 0 .8.1 1.1C7.7 5.8 4.1 3.9 1.7.9c-.5.7-.7 1.6-.7 2.5 0 1.7.9 3.2 2.2 4.1-.8-.1-1.6-.3-2.2-.7v.1c0 2.4 1.7 4.4 3.9 4.8-.4.1-.8.2-1.3.2-.3 0-.6 0-.9-.1.6 2 2.4 3.4 4.6 3.4-1.7 1.3-3.8 2.1-6.1 2.1-.4 0-.8 0-1.2-.1 2.2 1.4 4.8 2.3 7.5 2.3"/></symbol></svg>