<svg id="Layer_1" xmlns="http://www.w3.org/2000/svg" viewBox="0 0 18.7 18"><path d="M9.4 17.1C4.8 17.1 1 13.5 1 9S4.8.9 9.4.9s8.4 3.6 8.4 8.1-3.8 8.1-8.4 8.1M9.4 0C4.2 0 0 4 0 9s4.2 9 9.4 9 9.4-4 9.4-9-4.3-9-9.4-9"/><path d="M9.3 14.6c-.5 0-.9-.4-.9-.8 0-.5.4-.8.9-.8s.9.4.9.8c-.1.4-.4.8-.9.8"/><path d="M12.6 6.6c0 .7-.3 1.3-.8 1.8l-.8.8c-.7.6-1 1.3-1 2.4v.1H8.6v-.5c0-.9.3-1.7 1-2.2l1.1-1c.4-.3.5-.8.5-1.3 0-1-.8-1.8-1.9-1.8-.9 0-1.7.7-1.8 1.6v.1H6v-.1c.1-1.7 1.6-3 3.3-3 1.8-.1 3.3 1.4 3.3 3.1"/></svg>