<svg id="Layer_1" xmlns="http://www.w3.org/2000/svg" viewBox="0 0 24.3 24.3"><path d="M12.1 0C5.4 0 0 5.4 0 12.1c0 5.1 3.2 9.5 7.7 11.3-.1-1-.2-2.4 0-3.5.2-.9 1.4-6 1.4-6s-.4-.7-.4-1.8c0-1.7 1-2.9 2.2-2.9 1 0 1.5.8 1.5 1.7 0 1-.7 2.6-1 4-.3 1.2.6 2.2 1.8 2.2 2.2 0 3.8-2.3 3.8-5.6 0-2.9-2.1-4.9-5.1-4.9-3.5 0-5.5 2.6-5.5 5.3 0 1 .4 2.2.9 2.8.1.1.1.2.1.3-.1.4-.3 1.2-.3 1.4-.1.2-.2.3-.4.2-1.5-.7-2.5-2.9-2.5-4.7 0-3.8 2.8-7.3 8-7.3 4.2 0 7.5 3 7.5 7 0 4.2-2.6 7.5-6.3 7.5-1.2 0-2.4-.6-2.8-1.4 0 0-.6 2.3-.8 2.9-.3 1.1-1 2.4-1.5 3.2 1.1.4 2.3.5 3.6.5 6.7 0 12.1-5.4 12.1-12.1C24.3 5.4 18.8 0 12.1 0"/></svg>