<svg id="Layer_1" xmlns="http://www.w3.org/2000/svg" viewBox="0 0 22.4 22.4"><path d="M11.2 0c-3 0-3.4 0-4.6.1-1.2.1-2 .2-2.7.5-.7.3-1.4.7-2 1.3-.6.6-1 1.2-1.3 2-.3.7-.5 1.5-.5 2.7C0 7.8 0 8.2 0 11.2s0 3.4.1 4.6c.1 1.2.2 2 .5 2.7.3.7.7 1.4 1.3 2 .6.6 1.2 1 2 1.3.7.3 1.5.5 2.7.5 1.2.1 1.6.1 4.6.1 3 0 3.4 0 4.6-.1 1.2-.1 2-.2 2.7-.5 1.5-.6 2.7-1.8 3.3-3.3.3-.7.5-1.5.5-2.7.1-1.2.1-1.6.1-4.6s0-3.4-.1-4.6c-.1-1.2-.2-2-.5-2.7-.3-.7-.7-1.4-1.3-2-.6-.6-1.2-1-2-1.3-.7-.3-1.5-.5-2.7-.5-1.2-.1-1.6-.1-4.6-.1zm0 2c3 0 3.3 0 4.5.1 1.1.1 1.7.2 2.1.4.5.2.9.5 1.3.8.4.4.7.8.8 1.3.2.4.3 1 .4 2.1.1 1.2.1 1.5.1 4.5s0 3.3-.1 4.5c-.1 1.1-.2 1.7-.4 2.1-.4 1-1.1 1.7-2.1 2.1-.4.2-1 .3-2.1.4-1.2.1-1.5.1-4.5.1s-3.3 0-4.5-.1c-1.1-.1-1.7-.2-2.1-.4-.5-.2-.9-.5-1.3-.8-.4-.4-.7-.8-.8-1.3-.2-.4-.3-1-.4-2.1-.1-1.2-.1-1.5-.1-4.5s0-3.3.1-4.5c0-1.1.2-1.7.4-2.1.2-.5.5-.9.8-1.3.4-.4.8-.7 1.3-.8.4-.2 1-.3 2.1-.4C7.9 2 8.2 2 11.2 2"/><path d="M11.2 14.9c-2.1 0-3.7-1.7-3.7-3.7 0-2.1 1.7-3.7 3.7-3.7 2.1 0 3.7 1.7 3.7 3.7 0 2.1-1.6 3.7-3.7 3.7m0-9.5C8 5.4 5.4 8 5.4 11.2c0 3.2 2.6 5.8 5.8 5.8 3.2 0 5.8-2.6 5.8-5.8 0-3.2-2.6-5.8-5.8-5.8"/><path d="M17.2 3.9c.7 0 1.3.6 1.3 1.3 0 .7-.6 1.3-1.3 1.3-.7 0-1.3-.6-1.3-1.3-.1-.7.5-1.3 1.3-1.3"/></svg>